# xmcd
#
# Track frame offsets: 
#        150
#        25616
#        49587
#        69422
#        87149
#        107803
#        128731
#        153164
#        167852
#        195463
#        206976
#        229407
#
# Disc length: 3263 seconds
#
# Revision: 0
# Processed by: cddbd v1.5.2PL0 Copyright (c) Steve Scherf et al.
# Submitted via: ExactAudioCopy v1.0b3
#
DISCID=9a0cbd0c
DTITLE=Thanh Tuyen, Tuan Vu - Tinh Bo Vo
DYEAR=1989
DGENRE=
TTITLE0=Thanh Tuyen - Neu ai co hoi
TTITLE1=Dinh menh buon
TTITLE2=Tuan Vu - Bai hat nay cho em
TTITLE3=Thanh Tuyen - Tinh yeu tra lai trang sao
TTITLE4=Tinh bo vo
TTITLE5=Thanh Tuyen - Chuyen tau hoang hon
TTITLE6=Thanh Tuyen - Ngay xua anh noi
TTITLE7=Tuan Vu - Chieu lang em
TTITLE8=Loi cuoi cho em
TTITLE9=Thanh Tuyen - Thuyen khong ben do
TTITLE10=Tuan Vu - Sao chua thay hoi am
TTITLE11=Thanh Tuyen - Toi da gap
EXTD=
EXTT0=
EXTT1=
EXTT2=
EXTT3=
EXTT4=
EXTT5=
EXTT6=
EXTT7=
EXTT8=
EXTT9=
EXTT10=
EXTT11=
PLAYORDER=
